<svg xmlns="http://www.w3.org/2000/svg" xmlns:xlink="http://www.w3.org/1999/xlink" width="60" height="60" viewBox="0 0 60 60">
  <defs>
    <clipPath id="clip-path">
      <rect id="사각형_196" data-name="사각형 196" width="20.937" height="26.318" fill="none"/>
    </clipPath>
  </defs>
  <g id="icon_login_apple" transform="translate(-258 -432)">
    <circle id="타원_6" data-name="타원 6" cx="30" cy="30" r="30" transform="translate(258 432)"/>
    <g id="그룹_234" data-name="그룹 234" transform="translate(277.531 446)">
      <g id="그룹_233" data-name="그룹 233" clip-path="url(#clip-path)">
        <path id="패스_115" data-name="패스 115" d="M17.491,93.473a5.511,5.511,0,0,1,2.778-5.011,6.08,6.08,0,0,0-4.707-2.611,6.727,6.727,0,0,0-2.829.528,13.876,13.876,0,0,1-2.084.685,6.255,6.255,0,0,1-1.879-.58A6.355,6.355,0,0,0,6.4,85.9a5.861,5.861,0,0,0-3.061.91,6.513,6.513,0,0,0-2.263,2.412A9.022,9.022,0,0,0,0,93.762a14.833,14.833,0,0,0,.8,4.747,16,16,0,0,0,1.9,3.98,12.828,12.828,0,0,0,1.8,2.269,3.018,3.018,0,0,0,2.264,1.054,5.718,5.718,0,0,0,1.954-.555,5.575,5.575,0,0,1,2.264-.5,5.4,5.4,0,0,1,2.187.5,5.62,5.62,0,0,0,2.058.528,3.407,3.407,0,0,0,2.213-1.027,6.264,6.264,0,0,0,.784-.87q.425-.555.939-1.318.359-.553.708-1.187a11.881,11.881,0,0,0,.63-1.345c.085-.193.162-.391.231-.593s.137-.408.206-.619a5.851,5.851,0,0,1-3.446-5.352" transform="translate(0 -79.497)" fill="#fff"/>
        <path id="패스_116" data-name="패스 116" d="M144.869,4.218A5.818,5.818,0,0,0,146.232.526V.263A1.4,1.4,0,0,0,146.207,0a5.026,5.026,0,0,0-2.02.606A5.6,5.6,0,0,0,142.425,2a5.46,5.46,0,0,0-1.389,3.56v.25a1.343,1.343,0,0,0,.026.251,4.257,4.257,0,0,0,3.807-1.846" transform="translate(-130.619 0.001)" fill="#fff"/>
      </g>
    </g>
  </g>
</svg>
