<svg id="icon_noface_l" xmlns="http://www.w3.org/2000/svg" xmlns:xlink="http://www.w3.org/1999/xlink" width="120" height="120" viewBox="0 0 120 120">
  <defs>
    <clipPath id="clip-path">
      <circle id="타원_15" data-name="타원 15" cx="60" cy="60" r="60" transform="translate(130 266)" fill="#fff"/>
    </clipPath>
    <clipPath id="clip-path-2">
      <rect id="사각형_111" data-name="사각형 111" width="89.706" height="93.75" fill="none"/>
    </clipPath>
  </defs>
  <circle id="타원_21" data-name="타원 21" cx="60" cy="60" r="60" fill="#c8c8c8"/>
  <g id="icon_noface_l-2" data-name="icon_noface_l" transform="translate(-130 -266)" clip-path="url(#clip-path)">
    <g id="그룹_87" data-name="그룹 87" transform="translate(145.147 294.125)">
      <g id="그룹_86" data-name="그룹 86" clip-path="url(#clip-path-2)">
        <path id="패스_88" data-name="패스 88" d="M87.279,75.881c-1.41-1.41-20.964-10.209-28.716-13.663a5.858,5.858,0,0,1-3.449-4.834A35.586,35.586,0,0,0,65.127,45.76c2.864-.226,6.382-1.538,9.458-9.236,1.685-4.21.373-8.224-3.808-9.094.025-.481.069-.968.069-1.44A25.889,25.889,0,0,0,64.778,9.31c2.363-2.943,4.387-5.581,4.574-7.635A.918.918,0,0,0,68.079.766a20.506,20.506,0,0,1-4.4.968c-2.55.329-7.139-.064-10.981-.521A25.992,25.992,0,0,0,18.861,25.99c0,.472.044.963.069,1.44-4.166.884-5.463,4.888-3.783,9.094,3.071,7.674,6.574,9,9.433,9.232A35.44,35.44,0,0,0,34.592,57.384a5.858,5.858,0,0,1-3.449,4.834C23.4,65.672,3.837,74.471,2.427,75.881.663,77.645,0,93.75,0,93.75H89.706s-.663-16.1-2.427-17.869" transform="translate(0 0.001)" fill="rgba(255,255,255,0.9)"/>
      </g>
    </g>
    <g id="그룹_350" data-name="그룹 350" transform="translate(-1 3)">
      <rect id="사각형_255" data-name="사각형 255" width="3" height="6" rx="1.5" transform="translate(182 323)" fill="#949494"/>
      <path id="패스_215" data-name="패스 215" d="M1.5,0A1.5,1.5,0,0,1,3,1.5v3a1.5,1.5,0,0,1-3,0v-3A1.5,1.5,0,0,1,1.5,0Z" transform="translate(197 323)" fill="#949494"/>
    </g>
  </g>
</svg>
