<svg width="335" height="45" viewBox="0 0 335 45" fill="none" xmlns="http://www.w3.org/2000/svg">
<rect width="335" height="45" rx="8" fill="white"/>
<rect width="18" height="18" transform="translate(20 13.5)" fill="white"/>
<path fill-rule="evenodd" clip-rule="evenodd" d="M38.015 23.0797C38.015 22.4415 37.9577 21.8279 37.8514 21.2388H29.375V24.7201H34.2186C34.01 25.8451 33.3759 26.7983 32.4227 27.4365V29.6947H35.3314C37.0332 28.1279 38.015 25.8206 38.015 23.0797Z" fill="#4285F4"/>
<path fill-rule="evenodd" clip-rule="evenodd" d="M29.3748 31.8748C31.8048 31.8748 33.842 31.0689 35.3311 29.6944L32.4225 27.4362C31.6166 27.9762 30.5857 28.2953 29.3748 28.2953C27.0307 28.2953 25.0466 26.7121 24.3388 24.5848H21.332V26.9167C22.8129 29.858 25.8566 31.8748 29.3748 31.8748Z" fill="#34A853"/>
<path fill-rule="evenodd" clip-rule="evenodd" d="M24.3391 24.5849C24.1591 24.0449 24.0568 23.4681 24.0568 22.8749C24.0568 22.2818 24.1591 21.7049 24.3391 21.1649V18.8331H21.3323C20.7227 20.0481 20.375 21.4227 20.375 22.8749C20.375 24.3272 20.7227 25.7018 21.3323 26.9168L24.3391 24.5849Z" fill="#FBBC05"/>
<path fill-rule="evenodd" clip-rule="evenodd" d="M29.3748 17.4543C30.6961 17.4543 31.8825 17.9084 32.8152 18.8002L35.3966 16.2188C33.8379 14.7666 31.8007 13.8748 29.3748 13.8748C25.8566 13.8748 22.8129 15.8916 21.332 18.8329L24.3388 21.1648C25.0466 19.0375 27.0307 17.4543 29.3748 17.4543Z" fill="#EA4335"/>
<path d="M139.361 22.4141V26.2148C139.219 26.4017 138.998 26.6068 138.698 26.8301C138.401 27.0488 138.007 27.238 137.515 27.3975C137.023 27.557 136.41 27.6367 135.676 27.6367C135.052 27.6367 134.48 27.5319 133.96 27.3223C133.441 27.1081 132.992 26.7959 132.614 26.3857C132.24 25.9756 131.95 25.4766 131.745 24.8887C131.54 24.2962 131.438 23.6217 131.438 22.8652V22.1748C131.438 21.4229 131.531 20.7529 131.718 20.165C131.909 19.5726 132.183 19.0713 132.538 18.6611C132.894 18.251 133.322 17.9411 133.824 17.7314C134.329 17.5173 134.901 17.4102 135.539 17.4102C136.355 17.4102 137.03 17.5469 137.563 17.8203C138.101 18.0892 138.515 18.4629 138.807 18.9414C139.099 19.4199 139.283 19.9668 139.361 20.582H137.679C137.624 20.2357 137.517 19.9258 137.358 19.6523C137.203 19.3789 136.979 19.1647 136.688 19.0098C136.401 18.8503 136.027 18.7705 135.567 18.7705C135.17 18.7705 134.822 18.8457 134.521 18.9961C134.22 19.1465 133.969 19.3675 133.769 19.6592C133.573 19.9508 133.425 20.3063 133.324 20.7256C133.224 21.1449 133.174 21.6234 133.174 22.1611V22.8652C133.174 23.4121 133.231 23.8975 133.345 24.3213C133.463 24.7451 133.632 25.1029 133.851 25.3945C134.074 25.6862 134.345 25.9072 134.664 26.0576C134.983 26.2035 135.343 26.2764 135.744 26.2764C136.136 26.2764 136.458 26.2445 136.708 26.1807C136.959 26.1123 137.157 26.0326 137.303 25.9414C137.453 25.8457 137.57 25.7546 137.652 25.668V23.6924H135.58V22.4141H139.361ZM140.502 23.8838V23.7266C140.502 23.1934 140.58 22.6989 140.735 22.2432C140.89 21.7829 141.113 21.3841 141.405 21.0469C141.701 20.7051 142.061 20.4408 142.485 20.2539C142.913 20.0625 143.396 19.9668 143.934 19.9668C144.476 19.9668 144.96 20.0625 145.383 20.2539C145.812 20.4408 146.174 20.7051 146.47 21.0469C146.766 21.3841 146.992 21.7829 147.147 22.2432C147.302 22.6989 147.379 23.1934 147.379 23.7266V23.8838C147.379 24.417 147.302 24.9115 147.147 25.3672C146.992 25.8229 146.766 26.2217 146.47 26.5635C146.174 26.9007 145.814 27.165 145.39 27.3564C144.966 27.5433 144.486 27.6367 143.948 27.6367C143.405 27.6367 142.92 27.5433 142.492 27.3564C142.068 27.165 141.708 26.9007 141.412 26.5635C141.115 26.2217 140.89 25.8229 140.735 25.3672C140.58 24.9115 140.502 24.417 140.502 23.8838ZM142.15 23.7266V23.8838C142.15 24.2165 142.184 24.5309 142.252 24.8271C142.321 25.1234 142.428 25.3831 142.574 25.6064C142.72 25.8298 142.906 26.0052 143.134 26.1328C143.362 26.2604 143.633 26.3242 143.948 26.3242C144.253 26.3242 144.517 26.2604 144.741 26.1328C144.969 26.0052 145.155 25.8298 145.301 25.6064C145.447 25.3831 145.554 25.1234 145.623 24.8271C145.696 24.5309 145.732 24.2165 145.732 23.8838V23.7266C145.732 23.3984 145.696 23.0885 145.623 22.7969C145.554 22.5007 145.445 22.2386 145.294 22.0107C145.149 21.7829 144.962 21.6051 144.734 21.4775C144.511 21.3454 144.244 21.2793 143.934 21.2793C143.624 21.2793 143.355 21.3454 143.127 21.4775C142.904 21.6051 142.72 21.7829 142.574 22.0107C142.428 22.2386 142.321 22.5007 142.252 22.7969C142.184 23.0885 142.15 23.3984 142.15 23.7266ZM148.166 23.8838V23.7266C148.166 23.1934 148.243 22.6989 148.398 22.2432C148.553 21.7829 148.777 21.3841 149.068 21.0469C149.364 20.7051 149.724 20.4408 150.148 20.2539C150.577 20.0625 151.06 19.9668 151.597 19.9668C152.14 19.9668 152.623 20.0625 153.047 20.2539C153.475 20.4408 153.837 20.7051 154.134 21.0469C154.43 21.3841 154.655 21.7829 154.81 22.2432C154.965 22.6989 155.043 23.1934 155.043 23.7266V23.8838C155.043 24.417 154.965 24.9115 154.81 25.3672C154.655 25.8229 154.43 26.2217 154.134 26.5635C153.837 26.9007 153.477 27.165 153.054 27.3564C152.63 27.5433 152.149 27.6367 151.611 27.6367C151.069 27.6367 150.584 27.5433 150.155 27.3564C149.731 27.165 149.371 26.9007 149.075 26.5635C148.779 26.2217 148.553 25.8229 148.398 25.3672C148.243 24.9115 148.166 24.417 148.166 23.8838ZM149.813 23.7266V23.8838C149.813 24.2165 149.847 24.5309 149.916 24.8271C149.984 25.1234 150.091 25.3831 150.237 25.6064C150.383 25.8298 150.57 26.0052 150.798 26.1328C151.026 26.2604 151.297 26.3242 151.611 26.3242C151.917 26.3242 152.181 26.2604 152.404 26.1328C152.632 26.0052 152.819 25.8298 152.965 25.6064C153.111 25.3831 153.218 25.1234 153.286 24.8271C153.359 24.5309 153.395 24.2165 153.395 23.8838V23.7266C153.395 23.3984 153.359 23.0885 153.286 22.7969C153.218 22.5007 153.108 22.2386 152.958 22.0107C152.812 21.7829 152.625 21.6051 152.397 21.4775C152.174 21.3454 151.907 21.2793 151.597 21.2793C151.288 21.2793 151.019 21.3454 150.791 21.4775C150.568 21.6051 150.383 21.7829 150.237 22.0107C150.091 22.2386 149.984 22.5007 149.916 22.7969C149.847 23.0885 149.813 23.3984 149.813 23.7266ZM160.881 20.1035H162.378V27.2949C162.378 27.9603 162.237 28.5254 161.954 28.9902C161.672 29.4551 161.277 29.8083 160.772 30.0498C160.266 30.2959 159.68 30.4189 159.015 30.4189C158.732 30.4189 158.418 30.3779 158.071 30.2959C157.73 30.2139 157.397 30.0817 157.073 29.8994C156.754 29.7217 156.488 29.487 156.274 29.1953L157.046 28.2246C157.31 28.5391 157.602 28.7692 157.921 28.915C158.24 29.0609 158.575 29.1338 158.926 29.1338C159.304 29.1338 159.625 29.0632 159.89 28.9219C160.159 28.7852 160.366 28.5824 160.512 28.3135C160.658 28.0446 160.731 27.7165 160.731 27.3291V21.7783L160.881 20.1035ZM155.857 23.8838V23.7402C155.857 23.1797 155.925 22.6693 156.062 22.209C156.198 21.7441 156.394 21.3454 156.65 21.0127C156.905 20.6755 157.215 20.418 157.579 20.2402C157.944 20.0579 158.356 19.9668 158.817 19.9668C159.295 19.9668 159.703 20.0534 160.04 20.2266C160.382 20.3997 160.667 20.6481 160.895 20.9717C161.123 21.2907 161.3 21.6735 161.428 22.1201C161.56 22.5622 161.658 23.0544 161.722 23.5967V24.0547C161.663 24.5833 161.562 25.0664 161.421 25.5039C161.28 25.9414 161.093 26.3197 160.86 26.6387C160.628 26.9577 160.341 27.2038 159.999 27.377C159.662 27.5501 159.263 27.6367 158.803 27.6367C158.352 27.6367 157.944 27.5433 157.579 27.3564C157.219 27.1696 156.909 26.9076 156.65 26.5703C156.394 26.2331 156.198 25.8366 156.062 25.3809C155.925 24.9206 155.857 24.4215 155.857 23.8838ZM157.504 23.7402V23.8838C157.504 24.221 157.536 24.5355 157.6 24.8271C157.668 25.1188 157.771 25.3763 157.907 25.5996C158.049 25.8184 158.226 25.9915 158.441 26.1191C158.659 26.2422 158.917 26.3037 159.213 26.3037C159.6 26.3037 159.917 26.2217 160.163 26.0576C160.414 25.8936 160.605 25.6725 160.737 25.3945C160.874 25.112 160.97 24.7975 161.025 24.4512V23.2139C160.997 22.945 160.94 22.6943 160.854 22.4619C160.772 22.2295 160.66 22.0267 160.519 21.8535C160.377 21.6758 160.2 21.5391 159.985 21.4434C159.771 21.3431 159.518 21.293 159.227 21.293C158.93 21.293 158.673 21.3568 158.454 21.4844C158.235 21.612 158.055 21.7874 157.914 22.0107C157.777 22.234 157.675 22.4938 157.607 22.79C157.538 23.0863 157.504 23.403 157.504 23.7402ZM165.571 17V27.5H163.916V17H165.571ZM170.356 27.6367C169.809 27.6367 169.315 27.5479 168.873 27.3701C168.435 27.1878 168.062 26.9349 167.752 26.6113C167.446 26.2878 167.212 25.9072 167.048 25.4697C166.883 25.0322 166.801 24.5605 166.801 24.0547V23.7812C166.801 23.2025 166.886 22.6784 167.054 22.209C167.223 21.7396 167.458 21.3385 167.758 21.0059C168.059 20.6686 168.415 20.4111 168.825 20.2334C169.235 20.0557 169.679 19.9668 170.158 19.9668C170.687 19.9668 171.149 20.0557 171.546 20.2334C171.942 20.4111 172.27 20.6618 172.53 20.9854C172.794 21.3044 172.99 21.6849 173.118 22.127C173.25 22.569 173.316 23.0566 173.316 23.5898V24.2939H167.601V23.1113H171.689V22.9814C171.68 22.6852 171.621 22.4072 171.511 22.1475C171.407 21.8877 171.245 21.6781 171.026 21.5186C170.807 21.359 170.516 21.2793 170.151 21.2793C169.878 21.2793 169.634 21.3385 169.42 21.457C169.21 21.571 169.035 21.7373 168.893 21.9561C168.752 22.1748 168.643 22.4391 168.565 22.749C168.492 23.0544 168.456 23.3984 168.456 23.7812V24.0547C168.456 24.3783 168.499 24.679 168.586 24.957C168.677 25.2305 168.809 25.4697 168.982 25.6748C169.155 25.8799 169.365 26.0417 169.611 26.1602C169.857 26.2741 170.137 26.3311 170.452 26.3311C170.848 26.3311 171.202 26.2513 171.511 26.0918C171.821 25.9323 172.09 25.7067 172.318 25.415L173.186 26.2559C173.027 26.4883 172.819 26.7116 172.564 26.9258C172.309 27.1354 171.997 27.3063 171.628 27.4385C171.263 27.5706 170.839 27.6367 170.356 27.6367ZM180.474 26.044H185.612V26.982H174.202V26.044H179.312V23.678H175.63V19.8H183.078V17.84H175.602V16.902H184.198V20.724H176.764V22.754H184.492V23.678H180.474V26.044ZM194.473 17.07V19.324C194.473 21.62 195.971 23.93 197.833 24.77L197.147 25.694C195.719 24.994 194.515 23.51 193.913 21.718C193.339 23.608 192.135 25.176 190.665 25.932L189.965 24.994C191.813 24.112 193.339 21.704 193.339 19.324V17.07H194.473ZM199.149 15.978H200.297V28.564H199.149V15.978ZM209.914 22.124L209.326 23.02C207.926 22.53 206.848 21.508 206.302 20.22C205.77 21.62 204.636 22.726 203.166 23.272L202.564 22.362C204.454 21.704 205.714 20.08 205.714 18.288V17.784H202.9V16.86H209.634V17.784H206.862V18.274C206.862 19.94 208.066 21.494 209.914 22.124ZM204.188 25.148V24.224H212.364V28.55H211.216V25.148H204.188ZM214.226 19.282V20.234H212.364V23.552H211.216V15.992H212.364V19.282H214.226ZM218.901 24.784C220.049 24.784 220.875 23.972 220.875 22.852C220.875 21.718 220.049 20.906 218.901 20.906C217.767 20.906 216.941 21.718 216.941 22.852C216.941 23.972 217.767 24.784 218.901 24.784ZM218.901 19.954C220.693 19.954 221.967 21.158 221.967 22.852C221.967 24.56 220.693 25.736 218.901 25.736C217.137 25.736 215.863 24.56 215.863 22.852C215.863 21.158 217.137 19.954 218.901 19.954ZM219.461 16.132V17.994H222.555V18.918H215.149V17.994H218.313V16.132H219.461ZM226.951 21.144V22.11H224.893V28.536H223.745V15.992H224.893V21.144H226.951ZM228.56 17.336H234.44C234.44 20.962 232.774 24.154 228.602 26.198L227.986 25.26C231.36 23.65 233.04 21.242 233.278 18.26H228.56V17.336ZM236.974 15.978H238.122V28.536H236.974V15.978Z" fill="black" fill-opacity="0.54"/>
</svg>
