<svg id="icon_housetainer" xmlns="http://www.w3.org/2000/svg" xmlns:xlink="http://www.w3.org/1999/xlink" width="12" height="12" viewBox="0 0 12 12">
  <defs>
    <clipPath id="clip-path">
      <rect id="사각형_245" data-name="사각형 245" width="11" height="12" fill="none"/>
    </clipPath>
  </defs>
  <rect id="사각형_103" data-name="사각형 103" width="12" height="12" transform="translate(0 0)" fill="#842424" opacity="0"/>
  <g id="그룹_329" data-name="그룹 329" transform="translate(1 0)">
    <g id="그룹_328" data-name="그룹 328" transform="translate(0 0)" clip-path="url(#clip-path)">
      <path id="패스_191" data-name="패스 191" d="M10.305,2.5,6.193.181a1.413,1.413,0,0,0-1.387,0L.694,2.5A1.352,1.352,0,0,0,0,3.679V8.321A1.352,1.352,0,0,0,.694,9.5l4.112,2.322a1.413,1.413,0,0,0,1.387,0L10.305,9.5A1.352,1.352,0,0,0,11,8.321V3.679A1.352,1.352,0,0,0,10.305,2.5M8.067,8.931H6.994V6.451a3.238,3.238,0,0,0-3,0V8.931H2.932V3.069H4V5.674a3.893,3.893,0,0,1,3,0V3.069h1.07Z" transform="translate(0 0)" fill="#a62477"/>
    </g>
  </g>
</svg>
