<svg width="40" height="40" viewBox="0 0 40 40" fill="none" xmlns="http://www.w3.org/2000/svg">
<rect x="0.5" y="0.5" width="39" height="39" rx="19.5" stroke="#F5F7FA"/>
<path d="M20 26L15.8 27.8C15.1333 28.0833 14.5 28.0292 13.9 27.6375C13.3 27.2458 13 26.6917 13 25.975V13C13 12.45 13.1958 11.9792 13.5875 11.5875C13.9792 11.1958 14.45 11 15 11H25C25.55 11 26.0208 11.1958 26.4125 11.5875C26.8042 11.9792 27 12.45 27 13V25.975C27 26.6917 26.7 27.2458 26.1 27.6375C25.5 28.0292 24.8667 28.0833 24.2 27.8L20 26Z" fill="#5D94F0"/>
</svg>
