<svg width="335" height="45" viewBox="0 0 335 45" fill="none" xmlns="http://www.w3.org/2000/svg">
<rect width="335" height="45" rx="8" fill="#FEE500"/>
<g clip-path="url(#clip0_1438_10564)">
<path opacity="0.902" fill-rule="evenodd" clip-rule="evenodd" d="M29 14.444C24.29 14.444 20 18.23 20 21.433C20 23.833 21.558 25.95 23.931 27.208L22.933 30.874C22.844 31.199 23.213 31.457 23.496 31.27L27.873 28.365C28.242 28.401 28.618 28.422 29 28.422C33.97 28.422 38 25.293 38 21.433C38 18.23 33.97 14.444 29 14.444Z" fill="black"/>
</g>
<g opacity="0.85">
<path d="M140.388 18.532C140.379 22.5173 138.512 25.448 134.788 27.324L134.018 26.372C136.062 25.4387 137.509 24.132 138.358 22.452L134.438 22.872L134.214 21.78L138.764 21.43C138.951 20.842 139.058 20.226 139.086 19.582H134.704V18.532H140.388ZM143.482 17.244V22.172H145.428V23.194H143.482V29.48H142.25V17.244H143.482ZM152.501 18.532C152.492 22.5173 150.625 25.448 146.901 27.324L146.131 26.372C148.175 25.4387 149.622 24.132 150.471 22.452L146.551 22.872L146.327 21.78L150.877 21.43C151.064 20.842 151.171 20.226 151.199 19.582H146.817V18.532H152.501ZM155.595 17.244V22.172H157.541V23.194H155.595V29.48H154.363V17.244H155.595ZM168.339 21.402C168.339 22.354 167.979 23.138 167.261 23.754C166.551 24.3607 165.595 24.7107 164.391 24.804V26.876H169.305V27.898H158.259V26.876H163.145V24.79C161.95 24.6873 160.998 24.3327 160.289 23.726C159.579 23.1193 159.225 22.3447 159.225 21.402C159.225 20.3847 159.64 19.5633 160.471 18.938C161.311 18.3127 162.412 18 163.775 18C165.156 18 166.262 18.3127 167.093 18.938C167.923 19.554 168.339 20.3753 168.339 21.402ZM166.155 23.11C166.761 22.6713 167.065 22.102 167.065 21.402C167.065 20.702 166.761 20.1327 166.155 19.694C165.557 19.2553 164.764 19.036 163.775 19.036C162.795 19.036 162.001 19.2553 161.395 19.694C160.797 20.1327 160.499 20.702 160.499 21.402C160.499 22.102 160.797 22.6713 161.395 23.11C162.001 23.5487 162.795 23.768 163.775 23.768C164.755 23.768 165.548 23.5487 166.155 23.11ZM181.418 27.926H170.372V26.918H175.244V24.986H171.702V21.052H178.814V19.26H171.674V18.252H180.046V22.06H172.934V23.978H180.382V24.986H176.49V26.918H181.418V27.926ZM196.285 29.48H195.053V17.244H196.285V29.48ZM193.597 25.616L192.855 26.54C192.239 26.1107 191.642 25.5647 191.063 24.902C190.494 24.23 190.106 23.5627 189.901 22.9C189.686 23.6467 189.304 24.3793 188.753 25.098C188.202 25.8167 187.577 26.4047 186.877 26.862L186.107 25.952C187.04 25.3547 187.796 24.5613 188.375 23.572C188.954 22.5733 189.243 21.5187 189.243 20.408V18.322H190.531V20.352C190.531 21.4533 190.82 22.48 191.399 23.432C191.978 24.3747 192.71 25.1027 193.597 25.616ZM198.374 19.106V18.084H205.052V19.106H202.378V19.442C202.378 20.2633 202.663 21.0007 203.232 21.654C203.811 22.298 204.478 22.732 205.234 22.956L204.548 23.95C203.988 23.726 203.442 23.376 202.91 22.9C202.387 22.4147 202.005 21.8967 201.762 21.346C201.566 21.9247 201.179 22.494 200.6 23.054C200.031 23.614 199.424 24.0247 198.78 24.286L198.052 23.32C198.883 23.0213 199.601 22.5127 200.208 21.794C200.815 21.066 201.118 20.2913 201.118 19.47V19.106H198.374ZM199.802 25.098H207.726V29.494H206.494V26.12H199.802V25.098ZM209.546 21.514H207.726V24.454H206.48V17.244H207.726V20.478H209.546V21.514ZM221.785 23.376H219.839V29.48H218.593V17.244H219.839V22.34H221.785V23.376ZM215.793 19.05H212.139V18.042H215.793V19.05ZM217.571 21.15H210.319V20.156H217.571V21.15ZM216.885 24.426C216.885 25.1633 216.619 25.7747 216.087 26.26C215.555 26.7453 214.86 26.988 214.001 26.988C213.143 26.988 212.443 26.75 211.901 26.274C211.369 25.7887 211.103 25.1727 211.103 24.426C211.103 23.6887 211.374 23.0727 211.915 22.578C212.457 22.0833 213.152 21.836 214.001 21.836C214.86 21.836 215.555 22.0833 216.087 22.578C216.619 23.0633 216.885 23.6793 216.885 24.426ZM215.205 25.532C215.513 25.2427 215.667 24.874 215.667 24.426C215.667 23.978 215.509 23.6093 215.191 23.32C214.874 23.0213 214.477 22.872 214.001 22.872C213.525 22.872 213.129 23.0167 212.811 23.306C212.503 23.5953 212.349 23.9687 212.349 24.426C212.349 24.874 212.503 25.2427 212.811 25.532C213.119 25.812 213.516 25.952 214.001 25.952C214.505 25.952 214.907 25.812 215.205 25.532ZM232.541 29.48H231.295V17.244H232.541V29.48ZM228.957 18.546C228.919 20.422 228.397 22.0833 227.389 23.53C226.39 24.9673 225.018 26.162 223.273 27.114L222.517 26.176C223.963 25.4853 225.144 24.5473 226.059 23.362C226.983 22.1673 227.501 20.912 227.613 19.596H223.063V18.546H228.957Z" fill="black"/>
</g>
<defs>
<clipPath id="clip0_1438_10564">
<rect width="18" height="18" fill="white" transform="translate(20 13.5)"/>
</clipPath>
</defs>
</svg>
