<svg width="254" height="79" viewBox="0 0 254 79" fill="none" xmlns="http://www.w3.org/2000/svg">
<path fill-rule="evenodd" clip-rule="evenodd" d="M108.451 35V4.29087C120.072 -1.43029 136.522 -1.43029 145.51 4.29087V35H108.451ZM118.745 8.92157H122.177V17.4539C125.145 16.1434 128.819 16.1428 131.785 17.4522V8.92157H135.216V28.1373H131.785V20.0013C128.972 18.3945 124.989 18.3945 122.177 20.0013V28.1373H118.745V8.92157Z" fill="white"/>
<g clip-path="url(#clip0_1438_10584)">
<path d="M33.9258 67.4648C33.9258 65.8577 34.2216 64.3591 34.8328 62.969C35.4342 61.5789 36.2624 60.3563 37.3075 59.3113C38.3525 58.2662 39.5948 57.438 41.0145 56.8366C42.4342 56.2352 43.9624 55.9296 45.599 55.9296C47.2356 55.9296 48.7638 56.2352 50.1835 56.8366C51.6033 57.438 52.8356 58.2662 53.8906 59.3113C54.9455 60.3563 55.7638 61.5789 56.3652 62.969C56.9666 64.3591 57.2723 65.8577 57.2723 67.4648C57.2723 69.0718 56.9666 70.5803 56.3652 71.9803C55.7638 73.3901 54.9356 74.6028 53.8906 75.638C52.8455 76.6732 51.6033 77.4915 50.1835 78.0929C48.7638 78.6944 47.2356 79 45.599 79C43.9624 79 42.4342 78.6944 41.0145 78.0929C39.5948 77.4915 38.3624 76.6732 37.3075 75.638C36.2525 74.6028 35.4342 73.3803 34.8328 71.9803C34.2216 70.5803 33.9258 69.0718 33.9258 67.4648ZM38.3624 67.4648C38.3624 68.5789 38.53 69.6042 38.8751 70.5408C39.2103 71.4873 39.6934 72.2859 40.3145 72.9465C40.9356 73.607 41.6849 74.1296 42.5821 74.5239C43.4793 74.9084 44.4849 75.1056 45.5892 75.1056C46.7032 75.1056 47.7089 74.9084 48.5962 74.5239C49.4934 74.1394 50.2525 73.6169 50.8638 72.9465C51.4849 72.2859 51.9582 71.4775 52.3032 70.5408C52.6385 69.5944 52.8159 68.569 52.8159 67.4648C52.8159 66.3507 52.6483 65.3253 52.3032 64.3887C51.968 63.4521 51.4849 62.6436 50.8638 61.9831C50.2427 61.3225 49.4934 60.8 48.5962 60.4056C47.699 60.0211 46.6934 59.8239 45.5892 59.8239C44.4751 59.8239 43.4793 60.0211 42.5821 60.4056C41.6849 60.7901 40.9258 61.3225 40.3145 61.9831C39.6934 62.6436 39.2201 63.4521 38.8751 64.3887C38.5399 65.3253 38.3624 66.3507 38.3624 67.4648Z" fill="white"/>
<path d="M81.1211 78.4381H76.9506V75.0564H76.8619C76.3394 76.2296 75.4225 77.1761 74.1309 77.9057C72.8394 78.6352 71.3309 78.9902 69.6351 78.9902C68.5506 78.9902 67.5351 78.8226 66.5788 78.5071C65.6225 78.1817 64.7844 77.6789 64.0549 76.9986C63.3253 76.3183 62.7535 75.4507 62.3196 74.3859C61.8858 73.3212 61.6689 72.0592 61.6689 70.6099V56.4916H65.8394V69.4564C65.8394 70.4719 65.9774 71.3493 66.2534 72.069C66.5295 72.7986 66.9042 73.3803 67.3675 73.8338C67.8309 74.2775 68.3633 74.6028 68.9647 74.8099C69.5661 75.0071 70.1971 75.1155 70.838 75.1155C71.7056 75.1155 72.5042 74.9775 73.2436 74.7014C73.983 74.4254 74.6337 73.9817 75.1858 73.3803C75.738 72.7789 76.1718 72.0099 76.4774 71.0831C76.783 70.1564 76.9408 69.062 76.9408 67.8V56.4916H81.1112V78.4381H81.1211Z" fill="white"/>
<path d="M99.0844 62.0028C98.5914 61.3817 97.9802 60.869 97.2506 60.4549C96.521 60.0409 95.6337 59.8338 94.5886 59.8338C93.6027 59.8338 92.7449 60.0409 92.0154 60.4549C91.2858 60.869 90.9309 61.4803 90.9309 62.2789C90.9309 62.9296 91.1379 63.4521 91.552 63.8564C91.9661 64.2606 92.459 64.5859 93.0309 64.8324C93.6027 65.0789 94.214 65.2662 94.8647 65.3845C95.5154 65.5028 96.0675 65.6113 96.5309 65.7099C97.428 65.9268 98.2661 66.193 99.0548 66.4986C99.8435 66.8042 100.524 67.2085 101.096 67.7014C101.667 68.1944 102.111 68.7958 102.436 69.5057C102.762 70.2155 102.92 71.0831 102.92 72.0986C102.92 73.331 102.653 74.3958 102.131 75.2733C101.608 76.1507 100.928 76.8704 100.09 77.4226C99.252 77.9747 98.3055 78.3789 97.2407 78.6254C96.1759 78.8718 95.1013 79 94.0266 79C92.2027 79 90.6055 78.724 89.2351 78.162C87.8647 77.6099 86.6323 76.5845 85.5576 75.1056L88.7027 72.5127C89.383 73.193 90.1421 73.7944 90.9703 74.3169C91.7985 74.8395 92.8238 75.1056 94.0266 75.1056C94.5492 75.1056 95.0816 75.0564 95.6238 74.9479C96.1661 74.8395 96.6393 74.6719 97.0632 74.4352C97.4773 74.1986 97.8224 73.9127 98.0787 73.5578C98.3449 73.2028 98.4731 72.7986 98.4731 72.3352C98.4731 71.7141 98.2759 71.2113 97.8914 70.8071C97.5069 70.4028 97.0435 70.0873 96.5013 69.8606C95.959 69.6338 95.3872 69.4465 94.7858 69.3085C94.1844 69.1704 93.652 69.0521 93.1886 68.9634C92.2914 68.7465 91.4435 68.5 90.6449 68.224C89.8464 67.9479 89.1365 67.5733 88.5154 67.1099C87.8942 66.6465 87.4013 66.0648 87.0365 65.3451C86.6618 64.6352 86.4844 63.7578 86.4844 62.7028C86.4844 61.5592 86.721 60.5634 87.2041 59.7155C87.6872 58.8676 88.3182 58.1676 89.1069 57.6057C89.8956 57.0535 90.7928 56.6296 91.7886 56.3535C92.7942 56.0775 93.7999 55.9395 94.8252 55.9395C96.3041 55.9395 97.7238 56.2155 99.0844 56.7775C100.445 57.3296 101.52 58.2564 102.328 59.5578L99.0844 62.0028Z" fill="white"/>
<path d="M110.718 68.993C110.718 69.9493 110.925 70.8169 111.339 71.6056C111.753 72.3944 112.305 73.0648 112.986 73.6169C113.666 74.169 114.455 74.6028 115.352 74.9084C116.249 75.2141 117.176 75.3718 118.132 75.3718C119.424 75.3718 120.557 75.0662 121.514 74.4648C122.47 73.8634 123.348 73.0648 124.156 72.0789L127.301 74.4845C124.984 77.4817 121.741 78.9803 117.57 78.9803C115.845 78.9803 114.277 78.6845 112.867 78.1028C111.457 77.5113 110.274 76.7028 109.298 75.6676C108.322 74.6324 107.573 73.4099 107.05 72.0099C106.528 70.6099 106.262 69.0817 106.262 67.4451C106.262 65.8084 106.548 64.2901 107.119 62.8803C107.691 61.4803 108.48 60.2577 109.486 59.2225C110.491 58.1873 111.684 57.3789 113.074 56.7873C114.465 56.2056 115.973 55.9099 117.61 55.9099C119.552 55.9099 121.198 56.2451 122.539 56.9253C123.88 57.6056 124.984 58.493 125.852 59.5873C126.719 60.6817 127.341 61.9141 127.725 63.2944C128.11 64.6648 128.307 66.0648 128.307 67.4845V68.9634H110.718V68.993ZM123.87 65.6606C123.841 64.7338 123.693 63.8859 123.427 63.1169C123.16 62.3479 122.766 61.6775 122.243 61.1056C121.721 60.5338 121.06 60.0901 120.272 59.7648C119.483 59.4394 118.566 59.2817 117.521 59.2817C116.505 59.2817 115.569 59.4789 114.721 59.8634C113.873 60.2479 113.153 60.7507 112.572 61.3718C111.98 61.993 111.527 62.6732 111.201 63.4324C110.876 64.1915 110.718 64.9408 110.718 65.6803H123.87V65.6606Z" fill="white"/>
<path d="M28.6806 44H23.751V78.438H28.6806V44Z" fill="white"/>
<path d="M4.92958 44H0V78.438H4.92958V44Z" fill="white"/>
<path d="M4.50569 63.8268L2.46484 61.2535C9.01132 57.3099 19.6691 57.3099 26.2155 61.2535L24.1747 63.8268C18.8508 60.6127 9.83949 60.6127 4.50569 63.8268Z" fill="white"/>
<path d="M132.596 60.0113C136.342 58.4042 138.837 56.531 142.051 51.5422L140.71 57.7831H145.57L144.9 60.0113H140.217C137.851 71.0239 137.23 73.1239 137.23 74.0113C137.23 75.3521 138.255 76.1507 139.724 76.1507C142.179 76.1507 144.091 73.7451 144.584 73.7451C144.762 73.7451 144.9 73.8831 144.9 74.1C144.9 74.5929 141.686 78.3789 137.456 78.3789C134.962 78.3789 133.217 76.9986 133.217 74.8591C133.217 72.9465 134.015 70.0873 136.382 60.0113H132.596Z" fill="white"/>
<path d="M160.951 72.2268C159.926 74.0507 157.254 78.3789 152.393 78.3789C148.519 78.3789 146.646 75.7071 146.646 71.8226C146.646 63.1268 153.823 57.4183 158.368 57.4183C162.331 57.4183 163.268 60.5831 163.633 61.924C167.33 58.5324 167.912 57.7733 168.533 57.7733C168.848 57.7733 169.065 58 169.065 58.355C169.065 59.0254 167.547 61.431 166.926 64.369C165.368 71.9014 164.964 73.1043 164.964 74.4451C164.964 75.293 165.546 75.7859 166.344 75.7859C167.636 75.7859 168.444 74.7606 169.282 72.2662C169.864 70.5704 169.953 70.2648 170.268 70.2648C170.495 70.2648 170.623 70.4028 170.623 70.7085C170.623 71.3789 169.243 78.3789 164.698 78.3789C162.115 78.3789 160.951 77.0381 160.951 74.593C160.951 73.8831 160.951 73.3014 161.04 72.3155L160.951 72.2268ZM158.506 58.493C154.05 58.493 150.658 66.7845 150.658 72.4043C150.658 75.8845 151.95 76.6831 153.823 76.6831C159.265 76.6831 162.824 67.1395 162.824 63.669C162.824 60.1 160.951 58.493 158.506 58.493Z" fill="white"/>
<path d="M183.153 72.7197C183.686 71.2507 183.686 70.807 184.041 70.807C184.307 70.807 184.396 70.8957 184.396 71.2112C184.396 71.7042 182.966 78.3887 178.194 78.3887C175.828 78.3887 174.586 76.7422 174.586 74.6028C174.586 72.1972 177.839 62.831 177.839 61.0957C177.839 60.2479 177.435 59.6662 176.459 59.6662C174.941 59.6662 173.965 61.2239 173.245 63.0972C172.89 64.0338 172.712 64.6549 172.397 64.6549C172.219 64.6549 172.042 64.5662 172.042 64.2507C172.042 63.807 173.6 57.4281 178.243 57.4281C180.787 57.4281 181.852 58.9859 181.852 60.9479C181.852 63.4915 178.598 73.2521 178.598 74.7211C178.598 75.569 179.003 76.1507 179.979 76.1507C181.507 76.1507 182.493 74.5929 183.153 72.7197ZM184.405 51.0493C184.405 52.5183 183.242 53.5042 181.822 53.5042C180.57 53.5042 179.594 52.5183 179.594 51.3155C179.594 49.8465 180.757 48.8605 182.177 48.8605C183.429 48.8605 184.405 49.8465 184.405 51.0493Z" fill="white"/>
<path d="M192.343 78.2014C191.583 78.024 190.824 77.9352 190.292 77.9352C189.76 77.9352 189.129 78.024 188.557 78.2014C190.026 70.9352 191.771 63.0479 191.771 61.3028C191.771 60.3268 191.367 59.6564 190.391 59.6564C188.872 59.6564 187.896 61.2141 187.176 63.0873C186.822 64.024 186.644 64.6451 186.329 64.6451C186.151 64.6451 185.974 64.5564 185.974 64.2409C185.974 63.7972 187.531 57.4183 192.175 57.4183C194.63 57.4183 195.783 58.9761 195.783 61.0761C195.783 62.0127 195.645 63.3043 195.468 64.1127L195.557 64.2014C198.1 59.6071 200.368 57.4282 203.848 57.4282C206.747 57.4282 208.66 59.5282 208.66 62.3282C208.66 64.6451 206.076 73.3902 206.076 74.7212C206.076 75.569 206.481 76.1507 207.457 76.1507C208.975 76.1507 209.951 74.593 210.622 72.7197C211.154 71.2507 211.154 70.8071 211.509 70.8071C211.775 70.8071 211.864 70.8958 211.864 71.2113C211.864 71.7043 210.661 78.3888 205.574 78.3888C203.119 78.3888 202.054 76.831 202.054 74.731C202.054 72.2366 204.637 63.8958 204.637 61.5789C204.637 60.0606 203.789 59.124 202.182 59.124C197.943 59.124 195.005 67.2381 194.383 69.7817L192.343 78.2014Z" fill="white"/>
<path d="M226.278 57.4282C229.669 57.4282 232.075 58.8972 232.075 61.6183C232.075 63.531 230.606 65.5817 226.1 67.1C224.365 67.6817 221.151 68.4408 217.809 69.062C217.72 72.6704 220.037 75.7958 224.671 75.7958C226.455 75.7958 228.062 74.9972 229.038 74.2775C230.823 72.9859 231.178 72.4535 231.444 72.4535C231.621 72.4535 231.759 72.5915 231.759 72.8084C231.759 73.3901 228.151 78.3789 222.127 78.3789C217 78.3789 213.786 74.3662 213.786 69.7718C213.786 61.569 221.811 57.4282 226.278 57.4282ZM217.799 68.1648C221.052 67.5437 225.647 66.7352 227.342 64.7338C228.319 63.5803 228.683 62.1507 228.683 60.9873C228.683 59.0253 227.658 58.2169 226.14 58.2169C223.064 58.2268 218.292 61.0366 217.799 68.1648Z" fill="white"/>
<path d="M243.797 63.4028C244.822 61.4408 247.366 57.4282 251.507 57.4282C252.976 57.4282 253.962 58.2268 253.962 59.5282C253.962 61.0859 252.986 61.8944 251.507 61.8944C249.683 61.8944 249.318 60.6422 247.987 60.6422C245.493 60.6422 243.304 65.9465 242.013 71.0732L240.228 78.2113C239.469 78.0831 238.798 77.9451 238.177 77.9451C237.507 77.9451 236.797 78.1225 236.265 78.2113C239.607 63.5901 239.873 61.9437 239.873 61.1352C239.873 60.2479 239.469 59.6662 238.621 59.6662C236.975 59.6662 235.989 61.7662 235.367 63.5014C234.875 64.8817 234.835 65.1972 234.52 65.1972C234.342 65.1972 234.204 65.0591 234.204 64.8422C234.204 64.1718 235.545 57.438 240.317 57.438C242.367 57.438 243.886 58.7789 243.886 61.3127C243.886 62.0225 243.836 62.7817 243.708 63.4127H243.797V63.4028Z" fill="white"/>
</g>
<defs>
<clipPath id="clip0_1438_10584">
<rect width="253.962" height="35" fill="white" transform="translate(0 44)"/>
</clipPath>
</defs>
</svg>
