<svg id="icon_noface_xs" xmlns="http://www.w3.org/2000/svg" xmlns:xlink="http://www.w3.org/1999/xlink" width="36" height="36" viewBox="0 0 36 36">
  <defs>
    <clipPath id="clip-path">
      <circle id="타원_15" data-name="타원 15" cx="18" cy="18" r="18" fill="#7876aa"/>
    </clipPath>
    <clipPath id="clip-path-2">
      <rect id="사각형_111" data-name="사각형 111" width="26.912" height="28.125" fill="none"/>
    </clipPath>
    <clipPath id="clip">
      <use xlink:href="#fill"/>
    </clipPath>
    <clipPath id="clip-2">
      <use xlink:href="#fill-2"/>
    </clipPath>
  </defs>
  <circle id="타원_13" data-name="타원 13" cx="18" cy="18" r="18" fill="#c8c8c8"/>
  <g id="icon_noface_s" clip-path="url(#clip-path)">
    <g id="그룹_87" data-name="그룹 87" transform="translate(4.544 8.438)">
      <g id="그룹_86" data-name="그룹 86" clip-path="url(#clip-path-2)">
        <path id="패스_88" data-name="패스 88" d="M26.184,22.764c-.423-.423-6.289-3.063-8.615-4.1a1.757,1.757,0,0,1-1.035-1.45,10.676,10.676,0,0,0,3-3.487c.859-.068,1.915-.461,2.837-2.771.506-1.263.112-2.467-1.142-2.728.007-.144.021-.29.021-.432a7.767,7.767,0,0,0-1.82-5A5.56,5.56,0,0,0,20.806.5.275.275,0,0,0,20.424.23,6.152,6.152,0,0,1,19.1.52,16.6,16.6,0,0,1,15.81.364,7.8,7.8,0,0,0,5.658,7.8c0,.141.013.289.021.432C4.429,8.494,4.04,9.7,4.544,10.957c.921,2.3,1.972,2.7,2.83,2.769a10.632,10.632,0,0,0,3,3.489,1.757,1.757,0,0,1-1.035,1.45C7.019,19.7,1.151,22.341.728,22.764.2,23.293,0,28.125,0,28.125H26.912s-.2-4.831-.728-5.361" transform="translate(0 0)" fill="rgba(255,255,255,0.9)"/>
      </g>
    </g>
  </g>
  <g id="그룹_351" data-name="그룹 351" transform="translate(3.6 1.5)">
    <g id="사각형_256" data-name="사각형 256" transform="translate(12 17)" fill="#949494" stroke="#707070" stroke-width="1">
      <rect id="fill" width="0.8" height="2" rx="0.4" stroke="none"/>
      <path d="M0,0.5h0.800000011920929M0.5,0v2M0.800000011920929,1.5h-0.800000011920929M0.30000001192092896,2v-2" fill="none" clip-path="url(#clip)"/>
    </g>
    <g id="사각형_257" data-name="사각형 257" transform="translate(16 17)" fill="#949494" stroke="#707070" stroke-width="1">
      <rect id="fill-2" width="0.8" height="2" rx="0.4" stroke="none"/>
      <path d="M0,0.5h0.800000011920929M0.5,0v2M0.800000011920929,1.5h-0.800000011920929M0.30000001192092896,2v-2" fill="none" clip-path="url(#clip-2)"/>
    </g>
  </g>
</svg>
