<svg width="18" height="16" viewBox="0 0 18 16" fill="none" xmlns="http://www.w3.org/2000/svg">
<path d="M1.27098 15.5C1.11821 15.5 0.979317 15.4618 0.854317 15.3854C0.729317 15.309 0.632095 15.2083 0.56265 15.0833C0.493206 14.9583 0.455011 14.8229 0.448067 14.6771C0.441122 14.5312 0.479317 14.3889 0.56265 14.25L8.27098 0.916667C8.35432 0.777778 8.46196 0.673611 8.5939 0.604167C8.72584 0.534722 8.86126 0.5 9.00015 0.5C9.13904 0.5 9.27446 0.534722 9.4064 0.604167C9.53834 0.673611 9.64598 0.777778 9.72932 0.916667L17.4376 14.25C17.521 14.3889 17.5592 14.5312 17.5522 14.6771C17.5453 14.8229 17.5071 14.9583 17.4376 15.0833C17.3682 15.2083 17.271 15.309 17.146 15.3854C17.021 15.4618 16.8821 15.5 16.7293 15.5H1.27098ZM9.00015 13C9.23626 13 9.43418 12.9201 9.5939 12.7604C9.75362 12.6007 9.83348 12.4028 9.83348 12.1667C9.83348 11.9306 9.75362 11.7326 9.5939 11.5729C9.43418 11.4132 9.23626 11.3333 9.00015 11.3333C8.76404 11.3333 8.56612 11.4132 8.4064 11.5729C8.24668 11.7326 8.16682 11.9306 8.16682 12.1667C8.16682 12.4028 8.24668 12.6007 8.4064 12.7604C8.56612 12.9201 8.76404 13 9.00015 13ZM9.00015 10.5C9.23626 10.5 9.43418 10.4201 9.5939 10.2604C9.75362 10.1007 9.83348 9.90278 9.83348 9.66667V7.16667C9.83348 6.93056 9.75362 6.73264 9.5939 6.57292C9.43418 6.41319 9.23626 6.33333 9.00015 6.33333C8.76404 6.33333 8.56612 6.41319 8.4064 6.57292C8.24668 6.73264 8.16682 6.93056 8.16682 7.16667V9.66667C8.16682 9.90278 8.24668 10.1007 8.4064 10.2604C8.56612 10.4201 8.76404 10.5 9.00015 10.5Z" fill="#FF7373"/>
</svg>
