<svg width="40" height="40" viewBox="0 0 40 40" fill="none" xmlns="http://www.w3.org/2000/svg">
<rect x="0.5" y="0.5" width="39" height="39" rx="19.5" stroke="#F5F7FA"/>
<path d="M12 28C11.45 28 10.9792 27.8042 10.5875 27.4125C10.1958 27.0208 10 26.55 10 26V14C10 13.45 10.1958 12.9792 10.5875 12.5875C10.9792 12.1958 11.45 12 12 12H28C28.55 12 29.0208 12.1958 29.4125 12.5875C29.8042 12.9792 30 13.45 30 14V26C30 26.55 29.8042 27.0208 29.4125 27.4125C29.0208 27.8042 28.55 28 28 28H12ZM20 20.825C20.0833 20.825 20.1708 20.8125 20.2625 20.7875C20.3542 20.7625 20.4417 20.725 20.525 20.675L27.6 16.25C27.7333 16.1667 27.8333 16.0625 27.9 15.9375C27.9667 15.8125 28 15.675 28 15.525C28 15.1917 27.8583 14.9417 27.575 14.775C27.2917 14.6083 27 14.6167 26.7 14.8L20 19L13.3 14.8C13 14.6167 12.7083 14.6125 12.425 14.7875C12.1417 14.9625 12 15.2083 12 15.525C12 15.6917 12.0333 15.8375 12.1 15.9625C12.1667 16.0875 12.2667 16.1833 12.4 16.25L19.475 20.675C19.5583 20.725 19.6458 20.7625 19.7375 20.7875C19.8292 20.8125 19.9167 20.825 20 20.825Z" fill="#F59288"/>
</svg>
