<svg width="335" height="45" viewBox="0 0 335 45" fill="none" xmlns="http://www.w3.org/2000/svg">
<rect width="335" height="45" rx="8" fill="#050708"/>
<g clip-path="url(#clip0_1438_10639)">
<path d="M37.7338 27.8533C37.444 28.5229 37.1009 29.1393 36.7034 29.706C36.1615 30.4785 35.7178 31.0133 35.3759 31.3103C34.8459 31.7977 34.278 32.0473 33.6699 32.0615C33.2334 32.0615 32.7069 31.9373 32.094 31.6853C31.4792 31.4345 30.9141 31.3103 30.3975 31.3103C29.8556 31.3103 29.2745 31.4345 28.6529 31.6853C28.0304 31.9373 27.5288 32.0686 27.1454 32.0816C26.5623 32.1065 25.981 31.8497 25.4008 31.3103C25.0305 30.9873 24.5673 30.4336 24.0125 29.6492C23.4171 28.8116 22.9277 27.8403 22.5442 26.7329C22.1336 25.5368 21.9277 24.3785 21.9277 23.2572C21.9277 21.9727 22.2053 20.8649 22.7612 19.9365C23.1981 19.1908 23.7794 18.6026 24.5069 18.1707C25.2344 17.7389 26.0204 17.5189 26.8669 17.5048C27.3301 17.5048 27.9375 17.648 28.6923 17.9296C29.445 18.2121 29.9283 18.3554 30.1402 18.3554C30.2986 18.3554 30.8355 18.1879 31.7456 17.8539C32.6063 17.5442 33.3327 17.4159 33.9278 17.4664C35.5404 17.5966 36.7519 18.2323 37.5576 19.3775C36.1154 20.2513 35.402 21.4752 35.4162 23.0453C35.4292 24.2683 35.8728 25.286 36.7448 26.094C37.1399 26.469 37.5812 26.7589 38.0722 26.9648C37.9657 27.2736 37.8533 27.5693 37.7338 27.8533ZM34.0355 13.3001C34.0355 14.2586 33.6853 15.1536 32.9873 15.982C32.1449 16.9668 31.126 17.5359 30.0211 17.4461C30.0071 17.3311 29.9989 17.2101 29.9989 17.0829C29.9989 16.1627 30.3995 15.1779 31.1109 14.3727C31.4661 13.965 31.9178 13.626 32.4655 13.3556C33.0121 13.0892 33.5291 12.9419 34.0154 12.9166C34.0296 13.0448 34.0355 13.1729 34.0355 13.3001V13.3001Z" fill="white"/>
</g>
<path d="M136.182 27.912L139.612 18.504H140.802L144.204 27.912H142.916L141.964 25.266H138.296L137.358 27.912H136.182ZM140.088 20.156L138.66 24.216H141.586L140.13 20.156H140.088ZM145.333 29.998V20.954H146.467V21.514H146.537C147.022 21.0473 147.69 20.814 148.539 20.814C149.379 20.814 150.06 21.08 150.583 21.612C151.115 22.1347 151.381 22.9933 151.381 24.188V24.37C151.381 25.6113 151.106 26.5307 150.555 27.128C150.014 27.716 149.244 28.01 148.245 28.01C147.582 28.01 147.008 27.8607 146.523 27.562V29.998H145.333ZM148.147 27.044C149.491 27.044 150.163 26.2087 150.163 24.538V24.23C150.163 23.334 150.004 22.7133 149.687 22.368C149.37 22.0133 148.88 21.836 148.217 21.836C147.508 21.836 146.943 21.9947 146.523 22.312V26.568C146.896 26.8853 147.438 27.044 148.147 27.044ZM152.893 29.998V20.954H154.027V21.514H154.097C154.583 21.0473 155.25 20.814 156.099 20.814C156.939 20.814 157.621 21.08 158.143 21.612C158.675 22.1347 158.941 22.9933 158.941 24.188V24.37C158.941 25.6113 158.666 26.5307 158.115 27.128C157.574 27.716 156.804 28.01 155.805 28.01C155.143 28.01 154.569 27.8607 154.083 27.562V29.998H152.893ZM155.707 27.044C157.051 27.044 157.723 26.2087 157.723 24.538V24.23C157.723 23.334 157.565 22.7133 157.247 22.368C156.93 22.0133 156.44 21.836 155.777 21.836C155.068 21.836 154.503 21.9947 154.083 22.312V26.568C154.457 26.8853 154.998 27.044 155.707 27.044ZM160.482 27.912V17.888H161.686V27.912H160.482ZM166.51 28.038C165.427 28.038 164.601 27.73 164.032 27.114C163.472 26.4887 163.192 25.63 163.192 24.538V24.328C163.192 23.18 163.481 22.3073 164.06 21.71C164.648 21.1127 165.38 20.814 166.258 20.814C168.134 20.814 169.072 21.9107 169.072 24.104V24.776H164.424C164.461 25.5787 164.671 26.1527 165.054 26.498C165.436 26.8433 165.987 27.016 166.706 27.016C167.48 27.016 168.199 26.8387 168.862 26.484V27.366C168.274 27.814 167.49 28.038 166.51 28.038ZM166.202 21.78C165.744 21.78 165.343 21.9387 164.998 22.256C164.662 22.564 164.47 23.082 164.424 23.81H167.812C167.812 23.1007 167.676 22.5873 167.406 22.27C167.144 21.9433 166.743 21.78 166.202 21.78ZM181.17 27.926H170.124V26.918H174.996V24.986H171.454V21.052H178.566V19.26H171.426V18.252H179.798V22.06H172.686V23.978H180.134V24.986H176.242V26.918H181.17V27.926ZM196.037 29.48H194.805V17.244H196.037V29.48ZM193.349 25.616L192.607 26.54C191.991 26.1107 191.393 25.5647 190.815 24.902C190.245 24.23 189.858 23.5627 189.653 22.9C189.438 23.6467 189.055 24.3793 188.505 25.098C187.954 25.8167 187.329 26.4047 186.629 26.862L185.859 25.952C186.792 25.3547 187.548 24.5613 188.127 23.572C188.705 22.5733 188.995 21.5187 188.995 20.408V18.322H190.283V20.352C190.283 21.4533 190.572 22.48 191.151 23.432C191.729 24.3747 192.462 25.1027 193.349 25.616ZM198.126 19.106V18.084H204.804V19.106H202.13V19.442C202.13 20.2633 202.415 21.0007 202.984 21.654C203.563 22.298 204.23 22.732 204.986 22.956L204.3 23.95C203.74 23.726 203.194 23.376 202.662 22.9C202.139 22.4147 201.757 21.8967 201.514 21.346C201.318 21.9247 200.931 22.494 200.352 23.054C199.783 23.614 199.176 24.0247 198.532 24.286L197.804 23.32C198.635 23.0213 199.353 22.5127 199.96 21.794C200.567 21.066 200.87 20.2913 200.87 19.47V19.106H198.126ZM199.554 25.098H207.478V29.494H206.246V26.12H199.554V25.098ZM209.298 21.514H207.478V24.454H206.232V17.244H207.478V20.478H209.298V21.514ZM221.537 23.376H219.591V29.48H218.345V17.244H219.591V22.34H221.537V23.376ZM215.545 19.05H211.891V18.042H215.545V19.05ZM217.323 21.15H210.071V20.156H217.323V21.15ZM216.637 24.426C216.637 25.1633 216.371 25.7747 215.839 26.26C215.307 26.7453 214.612 26.988 213.753 26.988C212.895 26.988 212.195 26.75 211.653 26.274C211.121 25.7887 210.855 25.1727 210.855 24.426C210.855 23.6887 211.126 23.0727 211.667 22.578C212.209 22.0833 212.904 21.836 213.753 21.836C214.612 21.836 215.307 22.0833 215.839 22.578C216.371 23.0633 216.637 23.6793 216.637 24.426ZM214.957 25.532C215.265 25.2427 215.419 24.874 215.419 24.426C215.419 23.978 215.261 23.6093 214.943 23.32C214.626 23.0213 214.229 22.872 213.753 22.872C213.277 22.872 212.881 23.0167 212.563 23.306C212.255 23.5953 212.101 23.9687 212.101 24.426C212.101 24.874 212.255 25.2427 212.563 25.532C212.871 25.812 213.268 25.952 213.753 25.952C214.257 25.952 214.659 25.812 214.957 25.532ZM232.293 29.48H231.047V17.244H232.293V29.48ZM228.709 18.546C228.671 20.422 228.149 22.0833 227.141 23.53C226.142 24.9673 224.77 26.162 223.025 27.114L222.269 26.176C223.715 25.4853 224.896 24.5473 225.811 23.362C226.735 22.1673 227.253 20.912 227.365 19.596H222.815V18.546H228.709Z" fill="white"/>
<defs>
<clipPath id="clip0_1438_10639">
<rect width="20" height="20" fill="white" transform="translate(20 12.5)"/>
</clipPath>
</defs>
</svg>
