<svg width="101" height="100" viewBox="0 0 101 100" fill="none" xmlns="http://www.w3.org/2000/svg">
<rect x="1" y="0.5" width="99" height="99" rx="49.5" stroke="#F5F7FA"/>
<path d="M51 66.6667C52.0322 66.668 53.0391 66.3477 53.8808 65.7503C54.7225 65.1529 55.3572 64.3081 55.6967 63.3334H46.3033C46.6428 64.3081 47.2775 65.1529 48.1192 65.7503C48.9609 66.3477 49.9678 66.668 51 66.6667ZM62.6667 54.31V46.6667C62.6667 41.305 59.025 36.7884 54.0917 35.43C53.6033 34.2 52.41 33.3334 51 33.3334C49.59 33.3334 48.3967 34.2 47.9083 35.43C42.975 36.79 39.3333 41.305 39.3333 46.6667V54.31L36.4883 57.155C36.3333 57.3096 36.2103 57.4932 36.1265 57.6954C36.0427 57.8977 35.9997 58.1145 36 58.3334V60C36 60.4421 36.1756 60.866 36.4882 61.1786C36.8007 61.4911 37.2246 61.6667 37.6667 61.6667H64.3333C64.7754 61.6667 65.1993 61.4911 65.5118 61.1786C65.8244 60.866 66 60.4421 66 60V58.3334C66.0003 58.1145 65.9573 57.8977 65.8735 57.6954C65.7897 57.4932 65.6667 57.3096 65.5117 57.155L62.6667 54.31Z" fill="#C95393"/>
</svg>
