<svg xmlns="http://www.w3.org/2000/svg" width="242" height="80" viewBox="0 0 242 80">
  <g id="logo_housetainer" transform="translate(-86 -210)">
    <rect id="사각형_284" data-name="사각형 284" width="242" height="80" transform="translate(86 210)" fill="#fff" opacity="0"/>
    <g id="그룹_376" data-name="그룹 376" transform="translate(35 252.895)">
      <path id="패스_233" data-name="패스 233" d="M148.1,32.512a10.975,10.975,0,0,1,.887-4.414,11.489,11.489,0,0,1,2.436-3.6,11.587,11.587,0,0,1,16.293,0,11.529,11.529,0,0,1,2.436,3.6,11,11,0,0,1,.886,4.414,11.21,11.21,0,0,1-3.322,8.034,11.534,11.534,0,0,1-3.641,2.412,11.662,11.662,0,0,1-12.653-2.412,11.214,11.214,0,0,1-3.322-8.034m4.369,0a8.827,8.827,0,0,0,.5,3.028,6.774,6.774,0,0,0,1.41,2.367,6.536,6.536,0,0,0,2.231,1.548,7.989,7.989,0,0,0,5.917,0,6.559,6.559,0,0,0,2.231-1.548,6.836,6.836,0,0,0,1.41-2.367,9.406,9.406,0,0,0,0-6.054,6.869,6.869,0,0,0-1.41-2.367,6.575,6.575,0,0,0-2.231-1.548,7.989,7.989,0,0,0-5.917,0,6.552,6.552,0,0,0-2.231,1.548,6.806,6.806,0,0,0-1.41,2.367,8.825,8.825,0,0,0-.5,3.026" transform="translate(-61.117 -8.741)" fill="#fff"/>
      <path id="패스_234" data-name="패스 234" d="M213.641,43.683h-4.1V40.36h-.091a6.034,6.034,0,0,1-2.685,2.8,8.891,8.891,0,0,1-4.415,1.07,9.309,9.309,0,0,1-3-.479,6.768,6.768,0,0,1-2.48-1.479,7.124,7.124,0,0,1-1.706-2.572,9.836,9.836,0,0,1-.637-3.71V22.108h4.1V34.852a7.206,7.206,0,0,0,.41,2.571,4.668,4.668,0,0,0,1.093,1.73,4.072,4.072,0,0,0,1.569.955,5.779,5.779,0,0,0,1.844.3A6.682,6.682,0,0,0,205.9,40a4.947,4.947,0,0,0,1.911-1.3,6.142,6.142,0,0,0,1.273-2.254,10.254,10.254,0,0,0,.456-3.231V22.108h4.1Z" transform="translate(-80.276 -9.124)" fill="#fff"/>
      <path id="패스_235" data-name="패스 235" d="M247.8,27.142a6.282,6.282,0,0,0-1.8-1.525A5.172,5.172,0,0,0,243.388,25a4.981,4.981,0,0,0-2.527.615,1.957,1.957,0,0,0-1.069,1.8,2.049,2.049,0,0,0,.614,1.548,4.838,4.838,0,0,0,1.457.956,8.5,8.5,0,0,0,1.8.547q.956.181,1.637.319a18.9,18.9,0,0,1,2.48.772,6.9,6.9,0,0,1,2,1.184,5.132,5.132,0,0,1,1.319,1.775,6.093,6.093,0,0,1,.479,2.548,5.987,5.987,0,0,1-.773,3.119,6.537,6.537,0,0,1-2,2.116,8.46,8.46,0,0,1-2.8,1.184,14.031,14.031,0,0,1-3.163.364,12.5,12.5,0,0,1-4.711-.82,8.459,8.459,0,0,1-3.618-3l3.1-2.549a12.727,12.727,0,0,0,2.231,1.777,5.522,5.522,0,0,0,3,.772,7.994,7.994,0,0,0,1.57-.158,4.871,4.871,0,0,0,1.41-.5,3.1,3.1,0,0,0,1-.866,1.965,1.965,0,0,0,.388-1.205,2.075,2.075,0,0,0-.57-1.5,4.122,4.122,0,0,0-1.365-.933,9.924,9.924,0,0,0-1.684-.546c-.592-.136-1.115-.251-1.57-.341q-1.321-.32-2.5-.729a7.617,7.617,0,0,1-2.093-1.091,5.036,5.036,0,0,1-1.457-1.73,5.574,5.574,0,0,1-.546-2.594,5.868,5.868,0,0,1,.706-2.935,6.245,6.245,0,0,1,1.865-2.071,8.391,8.391,0,0,1,2.639-1.229,11.1,11.1,0,0,1,2.981-.41A10.962,10.962,0,0,1,247.8,22a6.622,6.622,0,0,1,3.184,2.73Z" transform="translate(-96.778 -8.74)" fill="#fff"/>
      <path id="패스_236" data-name="패스 236" d="M273.524,34.014a5.405,5.405,0,0,0,.615,2.571,6.378,6.378,0,0,0,1.616,1.979,7.453,7.453,0,0,0,2.321,1.274,8.3,8.3,0,0,0,2.732.456,6.106,6.106,0,0,0,3.322-.888,10.709,10.709,0,0,0,2.595-2.344l3.095,2.366a11.391,11.391,0,0,1-9.559,4.415,11.9,11.9,0,0,1-4.619-.864,10.054,10.054,0,0,1-3.5-2.39,10.583,10.583,0,0,1-2.208-3.6,12.7,12.7,0,0,1-.773-4.484A11.8,11.8,0,0,1,270,28.028a11.12,11.12,0,0,1,2.32-3.6,10.61,10.61,0,0,1,3.529-2.389,11.37,11.37,0,0,1,4.46-.865,10.658,10.658,0,0,1,4.848,1,9.588,9.588,0,0,1,3.254,2.617,10.373,10.373,0,0,1,1.844,3.641,15.209,15.209,0,0,1,.568,4.119v1.457Zm12.926-3.278a8.682,8.682,0,0,0-.432-2.5,5.523,5.523,0,0,0-1.16-1.98,5.366,5.366,0,0,0-1.935-1.32,7.093,7.093,0,0,0-2.708-.476,6.583,6.583,0,0,0-2.754.568,6.7,6.7,0,0,0-2.116,1.479A6.838,6.838,0,0,0,274,28.529a5.578,5.578,0,0,0-.479,2.207Z" transform="translate(-111.075 -8.74)" fill="#fff"/>
      <path id="패스_237" data-name="패스 237" d="M114.683,1.212V16.964a25.959,25.959,0,0,0-18.5,0V1.212H91.339V35.059h4.848V20.466c5.143-2.842,13.353-2.842,18.5,0V35.059h4.848V1.212Z" transform="translate(-37.694 -0.5)" fill="#fff"/>
      <path id="패스_238" data-name="패스 238" d="M323.983,22.627h-6.928V34.615a4.758,4.758,0,0,0,1,3.372,3.43,3.43,0,0,0,2.6,1.048,4.867,4.867,0,0,0,2.188-.433,4.057,4.057,0,0,0,1.5-1.344l.273.138a8.722,8.722,0,0,1-.752,1.434,5.412,5.412,0,0,1-1.276,1.369,6.03,6.03,0,0,1-1.869.956,8.358,8.358,0,0,1-2.53.342,5.7,5.7,0,0,1-1.837-.3,4.68,4.68,0,0,1-1.555-.866,5.174,5.174,0,0,1-1.1-1.276,2.74,2.74,0,0,1-.428-1.436q0-4.285.045-8.137t.046-6.859h-3.328v-.5l6.568-6.244h.36v3.964H325.4Z" transform="translate(-127.945 -6.554)" fill="#fff"/>
      <path id="패스_239" data-name="패스 239" d="M358.034,41.092a5.634,5.634,0,0,1-.957,1.482,3.941,3.941,0,0,1-1.39,1,4.392,4.392,0,0,1-1.755.342,4.454,4.454,0,0,1-2.757-.912,3.755,3.755,0,0,1-1.208-3.191l-.091-.045a11.184,11.184,0,0,1-.98,1.321,9.015,9.015,0,0,1-1.458,1.368,7.45,7.45,0,0,1-1.869,1.026,6.337,6.337,0,0,1-2.256.386,5.566,5.566,0,0,1-1.482-.206,3.5,3.5,0,0,1-1.367-.729,3.931,3.931,0,0,1-1-1.344,4.679,4.679,0,0,1-.388-2.005,3.738,3.738,0,0,1,1.026-2.462,11.438,11.438,0,0,1,2.53-2.143q1.5-.957,2.666-1.64t2.029-1.163q.865-.478,1.526-.82t1.117-.614v-4.7a1.533,1.533,0,0,0-.16-.433,2.438,2.438,0,0,0-.547-.707,3.717,3.717,0,0,0-1.071-.66,4.5,4.5,0,0,0-1.778-.3,4.3,4.3,0,0,0-1.436.25,5.075,5.075,0,0,0-1.253.64,4.477,4.477,0,0,0-.867.774,1.136,1.136,0,0,0-.319.66V28.33a1.427,1.427,0,0,1-.661,1.139,2.327,2.327,0,0,1-1.435.5,1.709,1.709,0,0,1-1.254-.524,1.659,1.659,0,0,1-.524-1.208,1.907,1.907,0,0,1,.274-1,3.507,3.507,0,0,1,.684-.821,5.23,5.23,0,0,1,.889-.638c.319-.182.6-.35.843-.5q1.185-.685,2.416-1.322t2.347-1.095a21.666,21.666,0,0,1,2.051-.729,5.728,5.728,0,0,1,1.527-.273,4.337,4.337,0,0,1,2.233.616,3.71,3.71,0,0,1,1.5,1.526,2.782,2.782,0,0,1,.228,1.117c.029.533.046,1.056.046,1.572q0,1.642-.023,2.964t-.022,2.553q0,1.231-.023,2.529t-.022,2.85a3.768,3.768,0,0,0,.707,2.711,2.3,2.3,0,0,0,1.618.661,2.328,2.328,0,0,0,1.55-.433,2.177,2.177,0,0,0,.684-1.116h.273a4.718,4.718,0,0,1-.411,1.686m-8.067-9.616a18.643,18.643,0,0,1-2.052,1.253q-1.231.659-2.393,1.436a10.63,10.63,0,0,0-2.006,1.709,3.075,3.075,0,0,0-.843,2.118,3.206,3.206,0,0,0,.82,2.143,2.685,2.685,0,0,0,2.142.957,7.293,7.293,0,0,0,2.1-.273,4.018,4.018,0,0,0,1.687-1.048,1.656,1.656,0,0,0,.547-1.277Z" transform="translate(-139.759 -9.02)" fill="#fff"/>
      <path id="패스_240" data-name="패스 240" d="M373.611,37.114v-.456c.365-.029.729-.069,1.094-.113a4.443,4.443,0,0,0,.98-.228,2.185,2.185,0,0,0,.729-.434.889.889,0,0,0,.3-.682V19.566a2.627,2.627,0,0,0-.069-.638.909.909,0,0,0-.387-.5,7.858,7.858,0,0,0-.98-.546,12.458,12.458,0,0,0-1.208-.5V17.1L380.22,15.1h.274V35.473a1,1,0,0,0,.387.661,1.989,1.989,0,0,0,.707.3,5.344,5.344,0,0,0,.889.114,6.417,6.417,0,0,1,.934.113v.456Zm6.54-27.462A2.484,2.484,0,0,1,375.936,7.9a2.3,2.3,0,0,1,.706-1.732,2.594,2.594,0,0,1,3.51,0,2.308,2.308,0,0,1,.707,1.732,2.381,2.381,0,0,1-.707,1.754" transform="translate(-154.182 -2.262)" fill="#fff"/>
      <path id="패스_241" data-name="패스 241" d="M406.861,43.872v-.5a10.321,10.321,0,0,0,1.96-.3.9.9,0,0,0,.729-.934V30.654a8.015,8.015,0,0,0-1-4.263,3.658,3.658,0,0,0-3.373-1.617,4.579,4.579,0,0,0-2.507.638,13.715,13.715,0,0,0-2.234,1.868v14.95a1.174,1.174,0,0,0,.319.661,1.362,1.362,0,0,0,.548.3,3.382,3.382,0,0,0,.729.114,6.344,6.344,0,0,1,.866.114v.455h-8.8v-.455a5.938,5.938,0,0,0,1.8-.411,1.083,1.083,0,0,0,.752-1.048V26.278a1.684,1.684,0,0,0-.068-.547,1.061,1.061,0,0,0-.388-.411q-.41-.227-.957-.524a12.1,12.1,0,0,0-1.094-.524V24l5.971-2.141h.273v4.922l.091.046a16.156,16.156,0,0,1,1.249-1.663,10.83,10.83,0,0,1,1.7-1.619,9.531,9.531,0,0,1,2.089-1.208,6.011,6.011,0,0,1,2.362-.478,4.673,4.673,0,0,1,4.043,1.96,8.465,8.465,0,0,1,1.408,5.057v13.4a.67.67,0,0,0,.3.546,1.977,1.977,0,0,0,.706.341,6.65,6.65,0,0,0,.889.183c.319.046.615.085.889.114v.411Z" transform="translate(-162.637 -9.02)" fill="#fff"/>
      <path id="패스_242" data-name="패스 242" d="M452.118,39.2a8.552,8.552,0,0,1-1.732,2.3,9.109,9.109,0,0,1-2.621,1.733,8.228,8.228,0,0,1-3.4.684,10.168,10.168,0,0,1-4.239-.867,9.222,9.222,0,0,1-3.258-2.437,11.227,11.227,0,0,1-2.074-3.693,13.676,13.676,0,0,1-.729-4.489,11.477,11.477,0,0,1,2.62-7.2,9.8,9.8,0,0,1,3.054-2.438,8.531,8.531,0,0,1,3.988-.934,11.988,11.988,0,0,1,3.351.455,7.773,7.773,0,0,1,2.735,1.391,7.209,7.209,0,0,1,1.891,2.346,8.531,8.531,0,0,1,.866,3.328H437.943c0,.244-.016.524-.045.843s-.046.646-.046.981a12.272,12.272,0,0,0,.546,3.668,9.653,9.653,0,0,0,1.6,3.1,7.4,7.4,0,0,0,2.643,2.12,8.342,8.342,0,0,0,3.692.774,6.921,6.921,0,0,0,3.988-1.162,5.48,5.48,0,0,0,2.257-2.849l.365.092a8.382,8.382,0,0,1-.821,2.256M446.9,23.84a4.132,4.132,0,0,0-3.122-1.208,3.806,3.806,0,0,0-2.3.751,8.509,8.509,0,0,0-1.778,1.755,8.9,8.9,0,0,0-1.162,2.029,8.4,8.4,0,0,0-.5,1.572H439.9q.82,0,1.619-.022c.53-.016,1.086-.03,1.663-.046s1.215-.023,1.914-.023c.456,0,.881-.014,1.276-.045a3.568,3.568,0,0,0,1.049-.228,3.357,3.357,0,0,0,.478-.684,2.218,2.218,0,0,0,.16-.957A4.029,4.029,0,0,0,446.9,23.84" transform="translate(-179.132 -9.02)" fill="#fff"/>
      <path id="패스_243" data-name="패스 243" d="M484.381,25.936a1.791,1.791,0,0,1-1.368.66,2.314,2.314,0,0,1-1.162-.25,3.635,3.635,0,0,1-.753-.569,4.688,4.688,0,0,0-.684-.57,1.747,1.747,0,0,0-1-.25,1.8,1.8,0,0,0-1.072.386,5.012,5.012,0,0,0-.98.981,7.687,7.687,0,0,0-.82,1.345q-.366.752-.638,1.436V42.231a1.1,1.1,0,0,0,.592.639,3.523,3.523,0,0,0,1.026.319,9.973,9.973,0,0,0,1.185.114,6.929,6.929,0,0,1,1.071.113v.456H469.568v-.456a5.908,5.908,0,0,0,1.8-.41,1.084,1.084,0,0,0,.752-1.048V26.551a1.629,1.629,0,0,0-.069-.546,1.033,1.033,0,0,0-.387-.411c-.273-.152-.592-.343-.957-.571a7.585,7.585,0,0,0-1.095-.569v-.274l5.971-2.325h.274l-.092,6.335h.092q.226-.548.729-1.6a13.767,13.767,0,0,1,1.276-2.118,8,8,0,0,1,1.869-1.846,4.233,4.233,0,0,1,2.506-.775,2.882,2.882,0,0,1,1.938.683,2.187,2.187,0,0,1,.8,1.733,2.4,2.4,0,0,1-.593,1.663" transform="translate(-193.781 -9.02)" fill="#fff"/>
    </g>
    <path id="패스_244" data-name="패스 244" d="M19.3,12.334a36.109,36.109,0,0,1,6.963.688v9.543H12.334V13.022a36.109,36.109,0,0,1,6.963-.688M19.3,0C12.331,0,4.75,1.615,0,4.447V34.9H38.594V4.447C33.844,1.615,26.263,0,19.3,0" transform="translate(188 213.601)" fill="#fff"/>
  </g>
</svg>
