<svg width="40" height="40" viewBox="0 0 40 40" fill="none" xmlns="http://www.w3.org/2000/svg">
<rect x="0.5" y="0.5" width="39" height="39" rx="19.5" stroke="#F5F7FA"/>
<path d="M15 22H25C25.2833 22 25.5208 21.9042 25.7125 21.7125C25.9042 21.5208 26 21.2833 26 21C26 20.7167 25.9042 20.4792 25.7125 20.2875C25.5208 20.0958 25.2833 20 25 20H15C14.7167 20 14.4792 20.0958 14.2875 20.2875C14.0958 20.4792 14 20.7167 14 21C14 21.2833 14.0958 21.5208 14.2875 21.7125C14.4792 21.9042 14.7167 22 15 22ZM15 19H25C25.2833 19 25.5208 18.9042 25.7125 18.7125C25.9042 18.5208 26 18.2833 26 18C26 17.7167 25.9042 17.4792 25.7125 17.2875C25.5208 17.0958 25.2833 17 25 17H15C14.7167 17 14.4792 17.0958 14.2875 17.2875C14.0958 17.4792 14 17.7167 14 18C14 18.2833 14.0958 18.5208 14.2875 18.7125C14.4792 18.9042 14.7167 19 15 19ZM15 16H25C25.2833 16 25.5208 15.9042 25.7125 15.7125C25.9042 15.5208 26 15.2833 26 15C26 14.7167 25.9042 14.4792 25.7125 14.2875C25.5208 14.0958 25.2833 14 25 14H15C14.7167 14 14.4792 14.0958 14.2875 14.2875C14.0958 14.4792 14 14.7167 14 15C14 15.2833 14.0958 15.5208 14.2875 15.7125C14.4792 15.9042 14.7167 16 15 16ZM12 26C11.45 26 10.9792 25.8042 10.5875 25.4125C10.1958 25.0208 10 24.55 10 24V12C10 11.45 10.1958 10.9792 10.5875 10.5875C10.9792 10.1958 11.45 10 12 10H28C28.55 10 29.0208 10.1958 29.4125 10.5875C29.8042 10.9792 30 11.45 30 12V27.575C30 28.025 29.7958 28.3375 29.3875 28.5125C28.9792 28.6875 28.6167 28.6167 28.3 28.3L26 26H12Z" fill="#F6BC41"/>
</svg>
